<svg xmlns="http://www.w3.org/2000/svg" viewBox="0 0 64 64" fill="none">
  <rect width="64" height="64" rx="16" fill="url(#grad)" />
  <line x1="32" y1="12" x2="32" y2="54" stroke="rgba(255,255,255,0.95)" stroke-width="2.5" stroke-linecap="round" />
  <path d="M32 18 C25 11, 14 15, 18 24 C20 28, 28 25, 32 22" stroke="rgba(255,255,255,0.95)" stroke-width="1.8" stroke-linecap="round" fill="none" />
  <path d="M32 18 C39 11, 50 15, 46 24 C44 28, 36 25, 32 22" stroke="rgba(255,255,255,0.95)" stroke-width="1.8" stroke-linecap="round" fill="none" />
  <path d="M32 24 C26 28, 38 34, 32 38 C26 42, 38 48, 32 52" stroke="rgba(255,255,255,0.95)" stroke-width="1.5" stroke-linecap="round" fill="none" />
  <path d="M32 24 C38 28, 26 34, 32 38 C38 42, 26 48, 32 52" stroke="rgba(255,255,255,0.95)" stroke-width="1.5" stroke-linecap="round" fill="none" />
  <circle cx="32" cy="10" r="4" fill="rgba(255,255,255,0.95)" />
  <defs>
    <linearGradient id="grad" x1="0%" y1="0%" x2="100%" y2="100%">
      <stop offset="0%" stop-color="#3b6cf4" />
      <stop offset="50%" stop-color="#2b5eef" />
      <stop offset="100%" stop-color="#1a3dc8" />
    </linearGradient>
  </defs>
</svg>